<?xml version="1.0" encoding="UTF-8"?>
<!DOCTYPE svg PUBLIC "-//W3C//DTD SVG 1.1//EN" "http://www.w3.org/Graphics/SVG/1.1/DTD/svg11.dtd">
<!-- Creator: CorelDRAW 2021 (64-Bit) -->
<svg xmlns="http://www.w3.org/2000/svg" xml:space="preserve" width="8.26772in" height="5.82677in" version="1.1" style="shape-rendering:geometricPrecision; text-rendering:geometricPrecision; image-rendering:optimizeQuality; fill-rule:evenodd; clip-rule:evenodd"
viewBox="0 0 8267.72 5826.77"
 xmlns:xlink="http://www.w3.org/1999/xlink"
 xmlns:xodm="http://www.corel.com/coreldraw/odm/2003">
 <defs>
  <style type="text/css">
   <![CDATA[
    .fil0 {fill:#00968A}
   ]]>
  </style>
 </defs>
 <g id="Layer_x0020_1">
  <metadata id="CorelCorpID_0Corel-Layer"/>
  <path class="fil0" d="M2780.78 983.48c0,-64.47 10.53,-129.72 31.5,-195.72 20.69,-65.13 51.37,-130.29 91.93,-195.43l2.13 -3.11c40.76,-64.48 90.41,-123.31 148.84,-176.4 59.24,-53.81 127.61,-101.99 204.97,-144.43l2.54 -1.29c77.69,-42.14 161.29,-73.66 250.92,-94.61 90.34,-21.11 186.78,-31.63 289.47,-31.63 94.96,0 184.86,8.83 269.69,26.57 85.09,17.79 164.63,44.56 238.58,80.36 73.51,35.41 139.06,77.61 196.61,126.57 57.96,49.31 107.23,104.94 147.8,166.85l1.79 3c39.99,61.26 70,125.14 90.03,191.35 20.54,67.93 30.82,138.48 30.82,211.35 0,57.12 -5.93,111.21 -17.7,162.14 -11.84,51.28 -29.7,99.17 -53.48,143.55 -23.01,42.96 -48.19,82.89 -75.52,119.69 -27.5,37.04 -57.21,71.05 -89.07,101.9l-0.24 0.24c-30.89,30.54 -73.2,70.59 -126.91,120.13 -51.23,47.24 -117.62,107.41 -199.18,180.51 -20.51,18.38 -39.32,36.11 -56.45,53.15 -16.93,16.83 -31.59,32.42 -44.05,46.76 -12.55,14.43 -23.13,27.69 -31.63,39.69 -7.99,11.29 -14.8,22.48 -20.34,33.58l-1.52 2.79c-5.44,10.48 -10.2,20.89 -14.33,31.19 -4.39,10.96 -8.09,21.67 -11.15,32.11 -3.43,13.2 -7.93,30.65 -12.76,50.59 -4.62,19.06 -10.54,44.61 -18.01,78.8l-0.49 2.02c-14.19,74.69 -43.63,131.51 -88.39,170.52 -46.11,40.19 -106.53,60.24 -181.3,60.24 -38.13,0 -73.9,-6.43 -107.1,-19.28 -33.06,-12.78 -63.07,-31.99 -89.82,-57.59l-0.09 -0.09 -0.08 0.09c-27.78,-26.61 -48.38,-59.2 -61.94,-97.94 -12.96,-37.02 -19.36,-79.15 -19.36,-126.55 0,-55.95 4.3,-108.41 13,-157.32 8.79,-49.46 22.16,-95.4 40.17,-137.8 17.45,-41.09 37.84,-79.92 61.22,-116.54 23.52,-36.81 49.68,-70.85 78.57,-102.17 27.94,-30.28 60.93,-63.46 98.78,-99.49 38.38,-36.54 80.52,-74.95 126.32,-115.28l2.6 -2.12c37.89,-33.08 72.02,-63.48 102.2,-91 29.63,-27.02 53.03,-49.12 70.02,-66.12 16.73,-16.74 32.24,-34.53 46.5,-53.37 14.35,-18.94 27.15,-38.48 38.37,-58.57 10.41,-18.63 18.28,-38.47 23.62,-59.34 5.31,-20.81 7.97,-42.61 7.97,-65.21 0,-44.96 -8.22,-86.17 -24.68,-123.54 -16.52,-37.51 -41.44,-71.7 -74.78,-102.46l-2.02 -1.99c-33.35,-30 -71.17,-52.68 -113.64,-67.94 -43.82,-15.73 -93.29,-23.64 -148.63,-23.64 -65.38,0 -121.55,8.03 -168.54,24.15 -45.03,15.44 -81.61,38.18 -109.78,68.27l0.09 0.09c-30.58,32.72 -58.97,73.46 -85.06,122.11 -26.7,49.8 -51.07,107.75 -72.99,173.72 -24.28,79.74 -60.06,140.27 -107.34,181.56 -49.4,43.14 -109.66,64.73 -180.73,64.73 -41.53,0 -80.02,-7.33 -115.58,-22.17 -35.55,-14.84 -67.61,-37.06 -96.24,-66.81 -28.04,-28.8 -49.31,-59.05 -63.71,-90.82 -14.91,-32.91 -22.42,-67.08 -22.42,-102.62zm-812.69 2829.39c-64.44,0 -129.66,-10.54 -195.63,-31.51 -65.11,-20.71 -130.24,-51.4 -195.34,-91.98l-3.13 -2.15c-64.46,-40.78 -123.25,-90.46 -176.28,-148.91 -53.8,-59.28 -101.94,-127.67 -144.35,-205.07l-1.29 -2.55c-42.13,-77.74 -73.63,-161.37 -94.56,-251.03 -21.11,-90.4 -31.62,-186.89 -31.62,-289.63 0,-95 8.83,-184.94 26.56,-269.82 17.78,-85.11 44.53,-164.69 80.31,-238.7 35.54,-73.83 77.66,-139.43 126.34,-196.71 49.13,-57.82 104.79,-107.12 166.93,-147.87l2.98 -1.79c61.23,-40.01 125.09,-70.04 191.28,-90.07 67.89,-20.55 138.41,-30.83 211.26,-30.83 57.1,0 111.16,5.93 162.04,17.7 51.26,11.85 99.13,29.72 143.48,53.5 42.94,23.02 82.87,48.22 119.64,75.56 37.03,27.53 71.07,57.31 102.01,89.29l0.08 0.09c30.42,30.79 70.44,73.11 120.01,126.93 47.23,51.26 107.4,117.74 180.46,199.32 18.36,20.51 36.07,39.32 53.07,56.44 16.14,16.25 31.81,30.95 46.94,44.12 14.41,12.53 27.67,23.13 39.68,31.64 12.09,8.57 23.24,15.44 33.38,20.52l0.81 0.42 0.04 -0.08c11.15,5.87 22.2,10.97 33.12,15.36 10.97,4.4 21.67,8.1 32.09,11.16 13.22,3.44 30.67,7.94 50.56,12.77 19.07,4.62 44.56,10.54 78.76,18.02l2.03 0.49c74.66,14.2 131.45,43.65 170.43,88.43 40.17,46.15 60.2,106.58 60.2,181.38 0,38.15 -6.43,73.94 -19.26,107.16 -12.85,33.26 -31.99,63.3 -57.39,89.85l-2.7 2.6c-26.27,26.63 -58,46.43 -95.37,59.52 -37,12.97 -79.11,19.37 -126.5,19.37 -55.92,0 -108.34,-4.31 -157.23,-13.01 -49.44,-8.79 -95.37,-22.17 -137.74,-40.18 -41.08,-17.47 -79.89,-37.87 -116.48,-61.26 -36.8,-23.53 -70.83,-49.71 -102.11,-78.61 -30.28,-27.96 -63.43,-60.96 -99.43,-98.83 -36.53,-38.41 -74.91,-80.57 -115.23,-126.38l-0.15 -0.18c-36.33,-41.67 -67.31,-76.56 -92.82,-104.58 -27.06,-29.7 -49.23,-53.2 -66.33,-70.32 -17.09,-17.1 -34.83,-32.62 -53.19,-46.55 -18.38,-13.94 -37.9,-26.69 -58.53,-38.21 -18.62,-10.41 -38.45,-18.3 -59.3,-23.63 -20.81,-5.32 -42.57,-7.98 -65.17,-7.98 -44.93,0 -86.11,8.24 -123.46,24.69 -37.48,16.52 -71.65,41.46 -102.39,74.82l-1.98 2.01c-29.99,33.35 -52.66,71.21 -67.91,113.72 -15.73,43.84 -23.63,93.34 -23.63,148.71 0,65.54 8.02,121.79 24.13,168.82 15.4,44.93 38.15,81.5 68.31,109.75 32.28,30.2 73.06,58.55 122.23,84.94 49.97,26.82 107.83,51.2 173.44,73.04 79.7,24.3 140.21,60.1 181.47,107.38 43.13,49.43 64.7,109.7 64.7,180.81 0,41.55 -7.33,80.07 -22.16,115.63 -14.83,35.56 -37.04,67.63 -66.78,96.28 -28.77,28.04 -59.01,49.33 -90.78,63.74 -32.88,14.92 -67.05,22.43 -102.57,22.43zm3622.99 -1998.64c64.44,0 129.66,10.54 195.62,31.51 65.11,20.7 130.24,51.4 195.34,91.98l3.13 2.14c64.46,40.78 123.25,90.46 176.28,148.91 53.79,59.29 101.94,127.68 144.35,205.07l1.29 2.56c42.12,77.74 73.63,161.37 94.56,251.04 21.1,90.39 31.62,186.89 31.62,289.62 0,95 -8.83,184.94 -26.56,269.82 -17.78,85.12 -44.53,164.69 -80.31,238.7 -35.54,73.83 -77.66,139.43 -126.34,196.71 -49.13,57.81 -104.79,107.12 -166.93,147.87l-2.98 1.79c-61.23,40.01 -125.09,70.04 -191.29,90.08 -67.89,20.55 -138.4,30.83 -211.25,30.83 -57.09,0 -111.15,-5.93 -162.05,-17.7 -51.26,-11.86 -99.12,-29.73 -143.48,-53.51 -42.94,-23.03 -82.87,-48.23 -119.63,-75.56 -37.02,-27.52 -71.07,-57.3 -102.01,-89.28l-0.08 -0.09c-30.43,-30.79 -70.44,-73.11 -120.01,-126.93 -47.23,-51.28 -107.39,-117.72 -180.46,-199.33 -18.34,-20.5 -36.05,-39.29 -53.04,-56.41 -16.15,-16.26 -31.83,-30.98 -46.97,-44.15 -14.42,-12.54 -27.67,-23.14 -39.68,-31.65l-2.11 -1.61c-10.99,-7.65 -21.42,-13.97 -31.27,-18.91l-0.81 -0.42 -0.04 0.08c-11.15,-5.87 -22.2,-10.98 -33.12,-15.35 -10.96,-4.4 -21.65,-8.1 -32.09,-11.15 -13.21,-3.44 -30.64,-7.94 -50.56,-12.77 -19.08,-4.63 -44.55,-10.54 -78.76,-18.03l-2.03 -0.49c-74.66,-14.2 -131.45,-43.65 -170.43,-88.43 -40.17,-46.15 -60.2,-106.59 -60.2,-181.39 0,-38.14 6.42,-73.93 19.26,-107.16 12.85,-33.26 31.99,-63.29 57.39,-89.85l2.69 -2.59c26.27,-26.65 58,-46.43 95.38,-59.53 37,-12.97 79.11,-19.36 126.5,-19.36 55.91,0 108.33,4.31 157.23,13.01 49.44,8.79 95.37,22.17 137.74,40.19 41.08,17.46 79.89,37.86 116.48,61.25 36.8,23.52 70.82,49.71 102.11,78.61 30.27,27.96 63.44,60.97 99.43,98.83 36.53,38.41 74.91,80.57 115.23,126.38l2.13 2.62c33.04,37.87 63.39,72 90.87,102.17 27.05,29.69 49.21,53.19 66.31,70.3 17.08,17.09 34.81,32.61 53.17,46.53 18.38,13.94 37.91,26.7 58.54,38.22 18.62,10.41 38.45,18.3 59.31,23.63 20.8,5.31 42.57,7.98 65.16,7.98 44.93,0 86.11,-8.24 123.46,-24.69 37.48,-16.52 71.65,-41.47 102.39,-74.82l1.97 -2c29.99,-33.37 52.66,-71.22 67.92,-113.74 15.73,-43.84 23.63,-93.34 23.63,-148.7 0,-65.54 -8.02,-121.8 -24.13,-168.82 -15.39,-44.93 -38.15,-81.5 -68.31,-109.74 -32.28,-30.2 -73.06,-58.55 -122.23,-84.95 -49.97,-26.82 -107.83,-51.2 -173.44,-73.04 -79.71,-24.3 -140.21,-60.09 -181.47,-107.38 -43.13,-49.42 -64.7,-109.7 -64.7,-180.8 0,-41.55 7.32,-80.07 22.16,-115.64 14.83,-35.55 37.03,-67.63 66.78,-96.28 28.78,-28.04 59.01,-49.33 90.78,-63.74 32.88,-14.92 67.04,-22.43 102.57,-22.43zm-812.69 2791.39c0,64.46 -10.54,129.71 -31.5,195.72 -20.69,65.14 -51.37,130.29 -91.93,195.44l-2.13 3.12c-40.77,64.48 -90.42,123.32 -148.85,176.4 -59.24,53.81 -127.59,101.99 -204.95,144.43l-2.54 1.29c-77.7,42.14 -161.29,73.66 -250.93,94.61 -90.34,21.11 -186.79,31.63 -289.48,31.63 -94.96,0 -184.86,-8.83 -269.69,-26.57 -85.09,-17.79 -164.62,-44.56 -238.57,-80.36 -73.51,-35.41 -139.06,-77.61 -196.61,-126.57 -57.98,-49.32 -107.25,-104.95 -147.8,-166.84l-1.79 -3c-40,-61.28 -70,-125.16 -90.03,-191.37 -20.54,-67.93 -30.81,-138.48 -30.81,-211.35 0,-57.12 5.93,-111.21 17.69,-162.15 11.84,-51.28 29.7,-99.16 53.48,-143.54 23.01,-42.96 48.19,-82.89 75.52,-119.69 27.5,-37.04 57.21,-71.04 89.07,-101.89l0.24 -0.24c30.89,-30.55 73.21,-70.59 126.92,-120.13 51.24,-47.25 117.64,-107.43 199.17,-180.51 20.5,-18.37 39.31,-36.11 56.46,-53.15 16.93,-16.83 31.6,-32.44 44.06,-46.77 12.54,-14.42 23.13,-27.68 31.63,-39.69 8.36,-11.81 15.24,-23.02 20.51,-33.57l0.42 -0.81 -0.08 -0.04c11.53,-21.92 20.17,-43.68 26.49,-65.26 3.43,-13.2 7.93,-30.65 12.76,-50.58 4.62,-19.1 10.54,-44.61 18.01,-78.8l0.49 -2.02c14.19,-74.7 43.64,-131.51 88.4,-170.52 46.11,-40.19 106.51,-60.24 181.29,-60.24 38.14,0 73.91,6.43 107.11,19.28 33.06,12.79 63.07,32 89.82,57.59l0.09 0.09 0.08 -0.09c27.78,26.61 48.37,59.2 61.93,97.93 12.96,37.04 19.36,79.16 19.36,126.56 0,55.95 -4.3,108.39 -13,157.31 -8.79,49.46 -22.15,95.41 -40.16,137.8 -17.46,41.1 -37.85,79.92 -61.23,116.54 -23.51,36.81 -49.68,70.85 -78.57,102.17 -27.94,30.28 -60.93,63.45 -98.78,99.49 -38.37,36.53 -80.52,74.94 -126.31,115.28l-2.6 2.12c-37.9,33.09 -72.04,63.5 -102.23,91.02 -29.61,27.01 -53,49.1 -69.98,66.09 -16.73,16.73 -32.24,34.53 -46.5,53.36 -14.35,18.94 -27.15,38.48 -38.38,58.58 -10.4,18.63 -18.28,38.47 -23.62,59.36 -5.31,20.81 -7.97,42.6 -7.97,65.2 0,44.96 8.22,86.17 24.68,123.53 16.52,37.51 41.44,71.7 74.78,102.46l2.02 1.98c33.35,30 71.17,52.68 113.64,67.94 43.82,15.74 93.3,23.65 148.63,23.65 65.38,0 121.55,-8.03 168.55,-24.15 45.02,-15.44 81.6,-38.18 109.77,-68.27l-0.09 -0.09c30.59,-32.72 58.98,-73.47 85.07,-122.13 26.7,-49.8 51.06,-107.74 72.98,-173.7 24.28,-79.75 60.07,-140.28 107.34,-181.57 49.4,-43.15 109.65,-64.73 180.73,-64.73 41.54,0 80.04,7.33 115.58,22.17 35.55,14.84 67.61,37.05 96.25,66.8 28.03,28.8 49.3,59.06 63.7,90.83 14.91,32.9 22.42,67.09 22.42,102.62z"/>
 </g>
</svg>
